<svg xmlns="http://www.w3.org/2000/svg" viewBox="0 0 23.421 23.389">
  <g id="Group_4" data-name="Group 4" transform="translate(-12.5 -12.602)">
    <path id="Path_1" data-name="Path 1" d="M22.318-87.4A9.816,9.816,0,0,0,12.5-77.58a9.835,9.835,0,0,0,9.818,9.818,9.73,9.73,0,0,0,6.691-2.658l6.411,6.411.5-.5-6.379-6.379A9.822,9.822,0,0,0,32.2-77.579,9.889,9.889,0,0,0,22.318-87.4Zm0,18.95a9.109,9.109,0,0,1-9.1-9.1,9.13,9.13,0,0,1,9.1-9.1,9.13,9.13,0,0,1,9.1,9.1A9.108,9.108,0,0,1,22.318-68.448Z" transform="translate(0 100)"/>
  </g>
</svg>
