<svg xmlns="http://www.w3.org/2000/svg" viewBox="0 0 13.852 13.872">
  <g id="Group_20" data-name="Group 20" transform="translate(-28.12 -28.074)">
    <path id="Path_5" data-name="Path 5" d="M41.97-65.1a6.939,6.939,0,0,0-2.062-4.828,6.94,6.94,0,0,0-4.852-2,6.936,6.936,0,0,0-6.006,3.468,6.937,6.937,0,0,0,0,6.937,6.937,6.937,0,0,0,6.006,3.468,6.944,6.944,0,0,0,4.83-1.983,6.942,6.942,0,0,0,2.082-4.788.871.871,0,0,0,0-.161.466.466,0,0,0,0-.11Zm-.925.1c-.1.243-.912.6-2.33.852.016-.279.03-.566.03-.856a9.767,9.767,0,0,0-1.477-5.567h0a6.015,6.015,0,0,1,2.74,2.206,6.018,6.018,0,0,1,1.035,3.363ZM35.052-59c-1.082,0-2.22-1.571-2.623-4.058a25.566,25.566,0,0,0,2.626.14,25.571,25.571,0,0,0,2.628-.14c-.414,2.5-1.552,4.061-2.63,4.068Zm0-4.85h0a23.016,23.016,0,0,1-2.736-.156c-.027-.332-.043-.666-.043-1,0-3.589,1.434-5.993,2.776-5.993S37.823-68.581,37.823-65c0,.332-.016.666-.043,1a22.983,22.983,0,0,1-2.734.179Zm-2.227-6.724A9.816,9.816,0,0,0,31.343-65a8.177,8.177,0,0,0,.03.856c-1.432-.256-2.247-.619-2.33-.856v-.047h0a5.992,5.992,0,0,1,1.046-3.333,6,6,0,0,1,2.729-2.183Zm-3.661,6.761h0a8.967,8.967,0,0,0,2.3.652A8.511,8.511,0,0,0,32.82-59.41a6.021,6.021,0,0,1-3.663-4.39Zm8.122,4.374h0a8.536,8.536,0,0,0,1.342-3.722,9.068,9.068,0,0,0,2.294-.623,6.024,6.024,0,0,1-3.642,4.358Z" transform="translate(0 100)"/>
  </g>
</svg>
