<svg xmlns="http://www.w3.org/2000/svg" viewBox="0 0 25.218 25.218">
  <path id="iconmonstr-twitter-4-icon" d="M62.609,50A12.609,12.609,0,1,0,75.218,62.609,12.609,12.609,0,0,0,62.609,50ZM68.95,60.437a8.317,8.317,0,0,1-12.8,7.385,5.881,5.881,0,0,0,4.33-1.211,2.927,2.927,0,0,1-2.732-2.031,2.929,2.929,0,0,0,1.321-.05,2.928,2.928,0,0,1-2.346-2.9,2.912,2.912,0,0,0,1.325.366,2.928,2.928,0,0,1-.9-3.9,8.3,8.3,0,0,0,6.028,3.056,2.926,2.926,0,0,1,4.983-2.667,5.857,5.857,0,0,0,1.857-.71,2.933,2.933,0,0,1-1.286,1.618,5.841,5.841,0,0,0,1.68-.46A5.94,5.94,0,0,1,68.95,60.437Z" transform="translate(-50 -50)"/>
</svg>
